{"title":"Barbie A Fairy Secret 2010 DVDrip Dutch Klam","uid":6214117,"size":1366322029,"categoryP":"video","categoryS":"movies","magnet":"?xt=urn:btih:10e1629c6c0bb928a62f122d31e01c3ca03d36ef&amp;dn=Barbie+A+Fairy+Secret+2010+DVDrip+Dutch+Klam&amp;tr=udp%3A%2F%2Ftracker.openbittorrent.com%3A80&amp;tr=udp%3A%2F%2Fopen.demonii.com%3A1337&amp;tr=udp%3A%2F%2Ftracker.coppersurfer.tk%3A6969&amp;tr=udp%3A%2F%2Fexodus.desync.com%3A6969","seeders":0,"leechers":1,"uploader":"Klambake","files":-1,"time":1299095634,"description":"Dutch spoken.\n\nDirector: William Lau\nWriter: Elise Allen\nStars: Diana Kaarina, Adrian Petriw and Britt Irvin \n\nGeneral:\n\nComplete name                    : Barbie A Fairy Secret\\Barbie Het FeeÃƒÂ«nmysterie.avi\nFormat                           : AVI\nFormat/Info                      : Audio Video Interleave\nFile size                        : 1.27 GiB\nDuration                         : 1h 11mn\nOverall bit rate                 : 2 534 Kbps\n\nVideo:\n\nFormat                           : MPEG-4 Visual\nFormat profile                   : Simple@L3\nFormat settings, BVOP            : No\nFormat settings, QPel            : No\nFormat settings, GMC             : No warppoints\nFormat settings, Matrix          : Default (H.263)\nCodec ID                         : XVID\nCodec ID/Hint                    : XviD\nDuration                         : 1h 11mn\nBit rate                         : 2 139 Kbps\nWidth                            : 704 pixels\nHeight                           : 396 pixels\nDisplay aspect ratio             : 16:9\nFrame rate                       : 25.000 fps\nColor space                      : YUV\nChroma subsampling               : 4:2:0\nBit depth                        : 8 bits\nScan type                        : Progressive\nBits/(Pixel*Frame)               : 0.307\nStream size                      : 1.07 GiB (84%)\nWriting library                  : XviD 1.1.2 (UTC 2006-11-01)\n\nAudio:\n\nFormat                           : AC-3\nFormat/Info                      : Audio Coding 3\nMode extension                   : CM (complete main)\nCodec ID                         : 2000\nDuration                         : 1h 11mn\nBit rate mode                    : Constant\nBit rate                         : 384 Kbps\nChannel(s)                       : 6 channels\nChannel positions                : Front: L C R, Side: L R, LFE\nSampling rate                    : 48.0 KHz\nBit depth                        : 16 bits\nStream size                      : 197 MiB (15%)\nAlignment                        : Aligned on interleaves\nInterleave, duration             : 32 ms (0.80 video frame)\n","torrent":{"xt":"urn:btih:10e1629c6c0bb928a62f122d31e01c3ca03d36ef","amp;dn":"Barbie+A+Fairy+Secret+2010+DVDrip+Dutch+Klam","amp;tr":["udp%3A%2F%2Ftracker.openbittorrent.com%3A80","udp%3A%2F%2Fopen.demonii.com%3A1337","udp%3A%2F%2Ftracker.coppersurfer.tk%3A6969","udp%3A%2F%2Fexodus.desync.com%3A6969"],"infoHash":"10e1629c6c0bb928a62f122d31e01c3ca03d36ef","infoHashBuffer":{"type":"Buffer","data":[16,225,98,156,108,11,185,40,166,47,18,45,49,224,28,60,160,61,54,239]},"announce":[],"urlList":[]}}